<?xml version="1.0" encoding="utf-8"?>
<!-- Generator: Adobe Illustrator 27.5.0, SVG Export Plug-In . SVG Version: 6.00 Build 0)  -->
<svg version="1.1" xmlns="http://www.w3.org/2000/svg" xmlns:xlink="http://www.w3.org/1999/xlink" x="0px" y="0px"
	 viewBox="0 0 3710 3710" style="enable-background:new 0 0 3710 3710;" xml:space="preserve">
<g id="Background">
	<g>
		<g>
			<rect style="fill:#FFFFFF;" width="3710" height="3710"/>
		</g>
	</g>
</g>
<g id="Illustration">
	<g>
		<linearGradient id="SVGID_1_" gradientUnits="userSpaceOnUse" x1="3602.5513" y1="4018.5508" x2="1154.2643" y2="977.932">
			<stop  offset="0" style="stop-color:#DAE3FE"/>
			<stop  offset="1" style="stop-color:#E9EFFD"/>
		</linearGradient>
		<path style="fill:url(#SVGID_1_);" d="M2929.012,2819.441c-56.236,59.203-109.446,97.382-151.487,127.547
			c-494.175,354.576-1078.916,251.219-1203.19,225.978c-183.514-37.273-538.241-109.32-794.703-410.914
			C391.627,2305.766,452.045,1586.9,753.008,1112.366c55.051-86.8,345.846-568.562,936.884-645.821
			c357.69-46.757,774.642,47.546,1076.588,300.516C3400.29,1298.068,3355.169,2370.796,2929.012,2819.441z"/>
		<g>
			
				<linearGradient id="SVGID_00000122682722041658495050000014400521474674053025_" gradientUnits="userSpaceOnUse" x1="1930.5585" y1="2088.324" x2="1917.0148" y2="4072.4377">
				<stop  offset="0" style="stop-color:#09005D"/>
				<stop  offset="1" style="stop-color:#1A0F91"/>
			</linearGradient>
			<polygon style="fill:url(#SVGID_00000122682722041658495050000014400521474674053025_);" points="1633.222,2563.2 
				1572.735,3105.675 2274.492,3105.675 2183.088,2563.2 			"/>
			
				<linearGradient id="SVGID_00000021798192812303002430000005397684478056010677_" gradientUnits="userSpaceOnUse" x1="1903.5118" y1="-522.9052" x2="1835.7963" y2="2917.1228">
				<stop  offset="0" style="stop-color:#09005D"/>
				<stop  offset="1" style="stop-color:#1A0F91"/>
			</linearGradient>
			<path style="fill:url(#SVGID_00000021798192812303002430000005397684478056010677_);" d="M454.396,1463.054v1242.411
				c0,102.205,81.445,185.784,183.616,188.419c453.789,11.701,2040.924,40.075,2472.9,33.707
				c74.245-1.094,134.391-60.508,136.533-134.731c8.329-288.629,21.858-982.684-28.206-1304.908
				c-10.543-67.857-67.82-118.599-136.456-120.794c-380.218-12.163-2062.685-50.786-2494.46-41.089
				C513.857,1327.741,454.396,1388.569,454.396,1463.054z"/>
			<path style="fill:#91B3FA;" d="M532.353,1457.006v1180.376c0,59.673,47.901,108.295,107.568,109.188l2408.844,29.76
				c59.155,0.885,107.644-46.707,107.864-105.868l4.03-1169.83c0.157-42.301-33.543-76.961-75.833-77.991l-2466.21-49.824
				C571.317,1371.667,532.353,1409.695,532.353,1457.006z"/>
			<path style="fill:#91B3FA;" d="M3174.763,2825.224c-0.021,0-0.043,0-0.066,0l-2642.411-45.022
				c-2.13-0.038-3.828-1.793-3.792-3.924c0.036-2.13,1.788-3.79,3.924-3.792l2642.411,45.022c2.131,0.038,3.828,1.793,3.792,3.924
				C3178.586,2823.54,3176.864,2825.224,3174.763,2825.224z"/>
			
				<linearGradient id="SVGID_00000070826202710933661890000010186119588494322308_" gradientUnits="userSpaceOnUse" x1="1942.4982" y1="2505.1519" x2="1895.0972" y2="3561.5366">
				<stop  offset="0" style="stop-color:#09005D"/>
				<stop  offset="1" style="stop-color:#1A0F91"/>
			</linearGradient>
			<path style="fill:url(#SVGID_00000070826202710933661890000010186119588494322308_);" d="M2425.65,3216.666H1398.582
				c-27.902,0-48.856-19.863-43.461-41.2l13.179-52.121c3.963-15.675,21.207-27.182,41.689-27.822l990.131-30.896
				c21.397-0.667,40.344,10.691,45.006,26.981l23.758,83.016C2475.057,3196.193,2454.004,3216.666,2425.65,3216.666z"/>
			<path style="fill:#91B3FA;" d="M1951.47,3110.155c-2.104,0-3.824-1.69-3.856-3.801c-0.03-2.131,1.671-3.883,3.802-3.915
				l42.428-0.622c0.019,0,0.038,0,0.058,0c2.104,0,3.824,1.69,3.856,3.801c0.03,2.131-1.671,3.883-3.801,3.915l-42.428,0.622
				C1951.51,3110.155,1951.491,3110.155,1951.47,3110.155z"/>
			<path style="fill:#91B3FA;" d="M1393.146,3188.441c-0.202,0-0.405-0.015-0.612-0.049c-2.104-0.335-3.538-2.313-3.201-4.417
				l6.053-37.909c3.289-20.618,20.831-35.803,41.707-36.108l450.016-6.578c0.019,0,0.038,0,0.058,0c2.104,0,3.824,1.69,3.856,3.802
				c0.03,2.131-1.671,3.883-3.801,3.915l-450.016,6.578c-17.12,0.25-31.503,12.702-34.202,29.609l-6.052,37.909
				C1396.65,3187.088,1395.009,3188.441,1393.146,3188.441z"/>
		</g>
		<g>
			
				<linearGradient id="SVGID_00000168800852598791707250000001895140826708073891_" gradientUnits="userSpaceOnUse" x1="1671.9839" y1="1416.5298" x2="1221.3668" y2="387.5077">
				<stop  offset="0" style="stop-color:#4F52FF"/>
				<stop  offset="1" style="stop-color:#4042E2"/>
			</linearGradient>
			<path style="fill:url(#SVGID_00000168800852598791707250000001895140826708073891_);" d="M2819.612,1567.353
				c-24.771,564.247-538.583,999.985-1147.632,973.247c-609.049-26.737-1082.701-505.825-1057.93-1070.072
				c24.77-564.247,538.583-999.985,1147.632-973.247C2370.731,524.019,2844.382,1003.106,2819.612,1567.353z"/>
			<ellipse style="opacity:0.2;fill:#91B3FA;" cx="1657.088" cy="1445.159" rx="866.175" ry="818.259"/>
			<g style="opacity:0.68;">
				<path style="fill:#FFFFFF;" d="M1998.826,1523.881c-0.265,180.366-12.634,361.1-44.42,538.912
					c-8.047,44.416-17.376,88.62-28.491,132.404c-11.149,43.766-24.021,87.153-39.782,129.573
					c-15.892,42.31-34.338,84.01-59.35,122.123c-12.604,18.917-26.901,37.043-44.544,51.954
					c-8.819,7.407-18.504,13.977-29.157,18.791c-10.631,4.782-22.25,7.809-34.042,8.02c-11.777,0.344-23.571-1.961-34.412-6.327
					c-10.883-4.324-20.803-10.597-29.835-17.76c-18.065-14.447-32.676-32.373-45.505-51.141
					c-25.456-37.841-44.152-79.457-60.21-121.7c-15.959-42.347-28.958-85.699-40.205-129.439
					c-11.226-43.754-20.649-87.938-28.762-132.341c-16.193-88.823-27.237-178.5-34.689-268.425
					c-7.399-89.938-11.108-180.164-11.564-270.404c-0.222-45.114,1.009-90.22,2.613-135.299c1.69-45.078,4.172-90.126,7.491-135.114
					c6.673-89.964,16.639-179.728,31.456-268.754c7.434-44.503,16.102-88.818,26.529-132.74
					c10.453-43.908,22.601-87.467,37.67-130.082c7.573-21.288,15.854-42.348,25.298-62.914c9.43-20.561,19.982-40.673,32.384-59.688
					c12.431-18.931,26.72-37.002,44.513-51.467c8.896-7.169,18.696-13.408,29.433-17.633c10.694-4.281,22.298-6.448,33.841-6.01
					c11.55,0.329,22.935,3.208,33.44,7.835c10.52,4.649,20.186,10.971,29.06,18.137c17.75,14.424,32.44,32.059,45.473,50.578
					c25.91,37.295,45.444,78.426,62.365,120.275c16.797,41.964,30.665,85.016,42.745,128.511
					c12.037,43.516,22.23,87.518,31.051,131.778C1984.126,1162.727,1998.305,1343.483,1998.826,1523.881z M1985.476,1523.881
					c0.165-89.872-3.251-179.766-10.719-269.327c-7.363-89.556-18.519-178.856-35.138-267.166
					c-8.299-44.149-17.964-88.048-29.464-131.461c-11.541-43.391-24.863-86.339-41.081-128.176
					c-16.335-41.719-35.278-82.706-60.415-119.736c-12.635-18.385-26.889-35.846-43.993-50.052
					c-8.548-7.06-17.83-13.264-27.873-17.833c-10.033-4.514-20.839-7.473-31.83-7.762c-10.983-0.348-21.952,1.861-32.112,6.042
					c-10.196,4.139-19.555,10.23-28.088,17.262c-17.072,14.183-30.904,32.024-42.927,50.787c-12,18.843-22.215,38.829-31.326,59.285
					c-9.126,20.46-17.111,41.436-24.399,62.648c-14.495,42.465-26.103,85.909-36.025,129.705
					c-9.896,43.813-18.044,88.024-24.962,132.42c-13.786,88.814-22.739,178.356-28.407,268.062
					c-5.725,89.718-7.702,179.64-7.54,269.522c-0.238,89.867,2.765,179.76,9.444,269.384
					c6.732,89.609,17.044,178.993,32.477,267.499c7.733,44.243,16.767,88.261,27.589,131.824
					c10.84,43.548,23.418,86.688,38.901,128.745c15.567,41.945,33.769,83.212,58.37,120.38
					c12.381,18.429,26.468,35.908,43.541,49.766c8.531,6.875,17.816,12.825,27.853,16.897c10.006,4.084,20.743,6.354,31.499,5.991
					c10.754-0.277,21.349-3.117,31.186-7.629c9.851-4.544,18.938-10.792,27.284-17.917c16.703-14.335,30.49-32.034,42.653-50.622
					c24.17-37.462,42.111-78.822,57.502-120.837c15.274-42.135,27.714-85.31,38.443-128.885
					c10.7-43.593,19.625-87.631,27.282-131.886c15.328-88.523,25.512-177.917,32.284-267.525
					C1982.343,1703.672,1985.511,1613.77,1985.476,1523.881z"/>
				<path style="fill:#FFFFFF;" d="M2453.833,1523.881c-0.624,116.151-15.552,232.353-46.646,344.362
					c-31.636,111.752-79.327,219.261-144.072,315.783c-32.377,48.208-69.057,93.585-110.042,134.756
					c-40.968,41.158-86.276,78.094-135.458,109.048c-49.226,30.835-102.395,55.52-158.052,72.266
					c-55.624,16.787-113.692,25.544-171.812,25.602c-58.12-0.005-116.204-8.709-171.858-25.45
					c-55.686-16.7-108.898-41.345-158.175-72.149c-49.233-30.922-94.608-67.826-135.642-108.967
					c-41.053-41.152-77.806-86.52-110.256-134.728c-64.877-96.534-112.667-204.09-144.451-315.897
					c-15.645-56.007-27.271-113.119-34.973-170.74c-7.661-57.631-11.511-115.747-11.775-173.885
					c0.301-58.139,4.186-116.25,11.882-173.871c7.739-57.611,19.409-114.707,35.091-170.692
					c31.864-111.762,79.728-219.245,144.647-315.679c32.464-48.164,69.221-93.482,110.27-134.579
					c41.035-41.078,86.377-77.947,135.601-108.772c49.262-30.725,102.462-55.186,158.051-71.881
					c55.553-16.764,113.544-25.507,171.587-25.564c58.043,0.105,116.019,8.898,171.546,25.704
					c55.561,16.739,108.714,41.25,157.925,72.007c49.171,30.86,94.449,67.759,135.416,108.856
					c40.98,41.115,77.665,86.442,110.056,134.607c64.787,96.421,112.554,203.857,144.267,315.565
					C2438.124,1291.547,2453.131,1407.729,2453.833,1523.881z M2438.529,1523.881c-0.168-114.833-14.472-229.788-44.771-340.637
					c-30.467-110.678-76.341-217.528-139.496-313.62c-31.56-47.996-67.405-93.236-107.552-134.359
					c-40.163-41.059-84.525-78.207-133.043-109.083c-48.577-30.703-101.033-55.416-156.037-72.131
					c-54.976-16.728-112.375-25.521-169.879-25.712c-57.504,0.24-114.888,9.082-169.836,25.852
					c-54.975,16.76-107.387,41.522-155.911,72.258c-48.464,30.911-92.761,68.089-132.857,109.166
					c-40.079,41.142-75.852,86.391-107.339,134.387c-63.023,96.078-108.799,202.881-139.116,313.504
					c-15.103,55.375-26.039,111.839-33.449,168.723c-7.428,56.891-11.092,114.263-11.221,171.651
					c0.164,57.388,3.865,114.755,11.328,171.637c7.447,56.874,18.426,113.322,33.567,168.674
					c30.395,110.579,76.246,217.309,139.312,313.287c31.499,47.952,67.277,93.151,107.353,134.238
					c40.095,41.014,84.36,78.159,132.816,108.971c48.51,30.657,100.908,55.235,155.787,71.99
					c54.849,16.793,112.139,25.674,169.566,25.966c57.428-0.238,114.734-9.067,169.612-25.814
					c54.908-16.708,107.35-41.248,155.91-71.873c48.507-30.782,92.838-67.893,133.001-108.89
					c40.143-41.069,75.993-86.259,107.566-134.21c63.197-95.991,109.147-202.769,139.69-313.402
					C2423.9,1753.648,2438.283,1638.713,2438.529,1523.881z"/>
				<path style="fill:#FFFFFF;" d="M793.796,1127.458l230.064-1.859l230.064-1.053l460.128-0.849l460.128,0.935l230.064,1.151
					l230.064,2.006c0.373,0.004,0.673,0.308,0.669,0.682c-0.002,0.369-0.302,0.666-0.669,0.669l-230.064,2.006l-230.064,1.15
					l-460.128,0.936l-460.128-0.85l-230.064-1.053l-230.064-1.859c-0.555-0.005-1.002-0.459-0.998-1.014
					C792.803,1127.907,793.249,1127.463,793.796,1127.458z"/>
				<path style="fill:#FFFFFF;" d="M1060.698,742.121c54.446-0.863,108.893-1.232,163.338-1.859l163.339-1.053
					c54.447-0.449,108.893-0.4,163.339-0.539l163.338-0.311l326.677,0.935l163.339,1.15c54.447,0.683,108.893,1.082,163.339,2.007
					c0.373,0.006,0.67,0.314,0.664,0.687c-0.006,0.365-0.302,0.657-0.664,0.664c-54.447,0.924-108.893,1.324-163.339,2.007
					l-163.339,1.15l-326.677,0.935l-163.338-0.311c-54.447-0.139-108.893-0.09-163.339-0.539l-163.339-1.053
					c-54.446-0.626-108.893-0.996-163.338-1.859c-0.555-0.009-0.999-0.466-0.99-1.022
					C1059.716,742.567,1060.157,742.13,1060.698,742.121z"/>
				<path style="fill:#FFFFFF;" d="M713.847,1512.796l250.051-1.852l250.052-1.06l500.102-0.85l500.103,0.936l250.052,1.151
					l250.051,2.005c0.374,0.003,0.673,0.308,0.671,0.681c-0.003,0.37-0.302,0.667-0.671,0.671l-250.051,2.005l-250.052,1.151
					l-500.103,0.935l-500.102-0.85l-250.052-1.06l-250.051-1.852c-0.555-0.004-1.002-0.458-0.999-1.014
					C712.852,1513.244,713.298,1512.8,713.847,1512.796z"/>
				<path style="fill:#FFFFFF;" d="M793.796,1898.133l230.064-1.858l230.064-1.053l460.128-0.85l460.128,0.936l230.064,1.15
					l230.064,2.007c0.373,0.004,0.673,0.309,0.669,0.681c-0.002,0.369-0.302,0.666-0.669,0.67l-230.064,2.007l-230.064,1.151
					l-460.128,0.935l-460.128-0.85l-230.064-1.053l-230.064-1.859c-0.555-0.004-1.002-0.458-0.998-1.014
					C792.803,1898.581,793.249,1898.138,793.796,1898.133z"/>
				<path style="fill:#FFFFFF;" d="M2400.326,2288.005H1093.619c-1.95,0-3.527-1.579-3.527-3.527c0-1.948,1.577-3.527,3.527-3.527
					h1306.707c1.949,0,3.527,1.58,3.527,3.527C2403.854,2286.426,2402.276,2288.005,2400.326,2288.005z"/>
			</g>
		</g>
		<g>
			<g>
				<g>
					<circle style="fill:#91B3FA;" cx="1103.285" cy="1014.105" r="112.542"/>
					<path style="fill:#91B3FA;" d="M1215.622,1008.071h-112.337H990.743c0,0-8.959,62.466,91.482,233.561
						c4.382,7.465,12.39,11.926,21.046,11.93c8.656,0.004,16.678-4.382,21.06-11.848
						C1224.763,1070.605,1215.622,1008.071,1215.622,1008.071z"/>
				</g>
				<g>
					<path style="opacity:0.8;fill:#FFFFFF;" d="M1103.235,1257.214v0.633h0.035c-9.796,0-18.939-5.39-23.862-13.774
						c-58.712-100.011-80.225-163.247-87.932-198.632c-2.197-8.14-3.46-16.12-3.858-24.3c-0.68-8.369-0.16-11.894-0.098-12.267
						l0.296-1.801c4.534-60.454,54.848-107.502,115.47-107.502c61.418,0,112.186,47.715,115.618,108.65
						c0.086,0.797,0.251,2.82,0.186,6.204l0.005,0.415c0,11.054-1.562,22.002-4.642,32.543
						c-7.972,35.354-29.618,97.966-87.329,196.29C1122.17,1252.113,1113.361,1257.214,1103.235,1257.214z M993.815,1013.135
						c-0.027,1.688,0.024,4.098,0.32,7.726l0.007-0.012c0.374,7.75,1.572,15.213,3.663,22.937l0.039,0.129
						c7.591,34.905,28.881,97.35,87.199,196.69c3.755,6.395,10.715,10.362,18.205,10.366l-0.014,3.26v-3.267
						c6.751,0,14.468-4.006,18.254-10.456c57.341-97.694,78.749-159.781,86.6-194.662l0.058-0.202
						c2.924-9.974,3.756-20.338,3.756-30.805l-0.656-0.46v-0.037c0-3.258,0.552-5.019,0.499-5.482l0.311-0.189
						c-3.195-57.516-50.953-102.571-108.935-102.571c-57.871,0-105.705,45.69-109.005,103.711l-0.094,3.323H993.815z"/>
				</g>
				
					<ellipse transform="matrix(0.7071 -0.7071 0.7071 0.7071 -393.5728 1077.3153)" style="fill:#FFFFFF;" cx="1103.648" cy="1013.742" rx="64.984" ry="64.984"/>
				<g>
					
						<linearGradient id="SVGID_00000001629456118007054100000003310887162752456364_" gradientUnits="userSpaceOnUse" x1="1012.6003" y1="1218.4014" x2="623.2253" y2="2093.6465">
						<stop  offset="0" style="stop-color:#4F52FF"/>
						<stop  offset="1" style="stop-color:#4042E2"/>
					</linearGradient>
					<path style="fill:url(#SVGID_00000001629456118007054100000003310887162752456364_);" d="M1103.648,1082.356
						c-37.834,0-68.614-30.78-68.614-68.614c0-37.834,30.78-68.615,68.614-68.615c37.834,0,68.615,30.78,68.615,68.615
						C1172.263,1051.576,1141.482,1082.356,1103.648,1082.356z M1103.648,952.388c-33.83,0-61.354,27.523-61.354,61.354
						c0,33.83,27.523,61.354,61.354,61.354c33.831,0,61.354-27.523,61.354-61.354
						C1165.002,979.912,1137.479,952.388,1103.648,952.388z"/>
				</g>
			</g>
			<g>
				<path style="fill:#FFFFFF;" d="M1042.004,946.083c-0.306,0-0.611-0.129-0.827-0.38c-0.392-0.456-0.339-1.144,0.117-1.535
					c18.255-15.678,41.579-24.313,65.675-24.313c0.602,0,1.089,0.487,1.089,1.089c0,0.602-0.487,1.089-1.089,1.089
					c-23.576,0-46.395,8.448-64.256,23.787C1042.508,945.997,1042.255,946.083,1042.004,946.083z"/>
			</g>
			<g>
				<path style="fill:#FFFFFF;" d="M1007.206,1021.797c-0.602,0-1.089-0.488-1.089-1.089c0-18.818,5.217-37.176,15.087-53.088
					c0.317-0.512,0.989-0.669,1.5-0.352c0.511,0.317,0.669,0.989,0.352,1.5c-9.656,15.567-14.76,33.527-14.76,51.94
					C1008.295,1021.31,1007.808,1021.797,1007.206,1021.797z"/>
			</g>
		</g>
		<g>
			<g>
				<g>
					<circle style="fill:#91B3FA;" cx="2234.149" cy="636.669" r="112.542"/>
					<path style="fill:#91B3FA;" d="M2346.486,630.635h-112.337h-112.542c0,0-8.959,62.466,91.483,233.561
						c4.382,7.465,12.39,11.926,21.046,11.93c8.656,0.004,16.678-4.382,21.06-11.848
						C2355.627,693.169,2346.486,630.635,2346.486,630.635z"/>
				</g>
				<g>
					<path style="opacity:0.8;fill:#FFFFFF;" d="M2234.099,879.778v0.633h0.035c-9.796,0-18.939-5.39-23.862-13.774
						c-58.711-100.011-80.225-163.247-87.932-198.632c-2.197-8.14-3.46-16.119-3.858-24.3c-0.68-8.369-0.16-11.894-0.098-12.267
						l0.296-1.801c4.534-60.454,54.848-107.502,115.47-107.502c61.418,0,112.186,47.715,115.618,108.65
						c0.086,0.797,0.251,2.82,0.186,6.204l0.005,0.415c0,11.054-1.562,22.002-4.642,32.543
						c-7.972,35.354-29.618,97.966-87.329,196.29C2253.034,874.677,2244.225,879.778,2234.099,879.778z M2124.678,635.698
						c-0.027,1.688,0.024,4.098,0.32,7.726l0.007-0.012c0.374,7.75,1.572,15.213,3.663,22.937l0.039,0.129
						c7.591,34.905,28.881,97.35,87.199,196.69c3.755,6.396,10.715,10.362,18.205,10.366l-0.014,3.26v-3.267
						c6.751,0,14.468-4.006,18.254-10.456c57.341-97.694,78.749-159.781,86.6-194.662l0.058-0.202
						c2.924-9.974,3.756-20.338,3.756-30.805l-0.656-0.46v-0.037c0-3.258,0.552-5.019,0.499-5.482l0.311-0.189
						c-3.195-57.517-50.953-102.571-108.935-102.571c-57.871,0-105.705,45.69-109.004,103.711l-0.094,3.323H2124.678z"/>
				</g>
				
					<ellipse transform="matrix(0.9571 -0.2898 0.2898 0.9571 -88.5131 674.8268)" style="fill:#FFFFFF;" cx="2234.512" cy="636.306" rx="64.984" ry="64.984"/>
				<g>
					
						<linearGradient id="SVGID_00000078028706890216103680000007156855232635998381_" gradientUnits="userSpaceOnUse" x1="2109.7813" y1="810.4991" x2="1815.2113" y2="1221.8817">
						<stop  offset="0" style="stop-color:#4F52FF"/>
						<stop  offset="1" style="stop-color:#4042E2"/>
					</linearGradient>
					<path style="fill:url(#SVGID_00000078028706890216103680000007156855232635998381_);" d="M2234.512,704.92
						c-37.834,0-68.614-30.78-68.614-68.614c0-37.834,30.781-68.615,68.614-68.615c37.834,0,68.615,30.78,68.615,68.615
						C2303.126,674.14,2272.346,704.92,2234.512,704.92z M2234.512,574.953c-33.83,0-61.354,27.523-61.354,61.354
						c0,33.83,27.523,61.354,61.354,61.354c33.831,0,61.354-27.523,61.354-61.354
						C2295.865,602.476,2268.342,574.953,2234.512,574.953z"/>
				</g>
			</g>
			<g>
				<path style="fill:#FFFFFF;" d="M2172.868,568.648c-0.306,0-0.611-0.129-0.827-0.38c-0.392-0.456-0.34-1.144,0.117-1.536
					c18.256-15.678,41.579-24.313,65.675-24.313c0.602,0,1.089,0.487,1.089,1.089c0,0.602-0.487,1.089-1.089,1.089
					c-23.576,0-46.395,8.448-64.256,23.787C2173.372,568.561,2173.119,568.648,2172.868,568.648z"/>
			</g>
			<g>
				<path style="fill:#FFFFFF;" d="M2138.07,644.361c-0.602,0-1.089-0.488-1.089-1.089c0-18.818,5.217-37.176,15.087-53.088
					c0.317-0.511,0.989-0.669,1.5-0.352c0.511,0.317,0.669,0.989,0.352,1.5c-9.656,15.567-14.76,33.528-14.76,51.94
					C2139.159,643.873,2138.672,644.361,2138.07,644.361z"/>
			</g>
		</g>
		<g>
			<g>
				<g>
					<circle style="fill:#91B3FA;" cx="2684.972" cy="1240.185" r="112.542"/>
					<path style="fill:#91B3FA;" d="M2797.309,1234.152h-112.337H2572.43c0,0-8.96,62.466,91.482,233.561
						c4.382,7.465,12.39,11.926,21.046,11.93c8.656,0.004,16.678-4.382,21.06-11.848
						C2806.45,1296.685,2797.309,1234.152,2797.309,1234.152z"/>
				</g>
				<g>
					<path style="opacity:0.8;fill:#FFFFFF;" d="M2684.922,1483.294v0.633h0.035c-9.796,0-18.939-5.39-23.862-13.774
						c-58.712-100.011-80.225-163.247-87.932-198.632c-2.197-8.14-3.46-16.12-3.858-24.3c-0.68-8.369-0.16-11.894-0.098-12.267
						l0.296-1.801c4.535-60.454,54.848-107.502,115.47-107.502c61.418,0,112.186,47.715,115.618,108.65
						c0.086,0.797,0.251,2.82,0.186,6.204l0.005,0.415c0,11.054-1.562,22.002-4.642,32.543
						c-7.972,35.354-29.618,97.966-87.329,196.29C2703.858,1478.193,2695.048,1483.294,2684.922,1483.294z M2575.502,1239.215
						c-0.027,1.688,0.024,4.098,0.321,7.726l0.007-0.012c0.374,7.75,1.572,15.213,3.663,22.937l0.039,0.13
						c7.591,34.904,28.881,97.349,87.199,196.689c3.755,6.395,10.715,10.363,18.205,10.366l-0.014,3.26v-3.267
						c6.75,0,14.468-4.006,18.254-10.456c57.341-97.694,78.749-159.781,86.6-194.662l0.058-0.202
						c2.924-9.974,3.756-20.338,3.756-30.805l-0.656-0.46v-0.037c0-3.258,0.552-5.019,0.499-5.482l0.311-0.189
						c-3.195-57.516-50.953-102.571-108.935-102.571c-57.871,0-105.705,45.69-109.004,103.711l-0.094,3.323H2575.502z"/>
				</g>
				
					<ellipse transform="matrix(0.9571 -0.2898 0.2898 0.9571 -244.0582 831.3635)" style="fill:#FFFFFF;" cx="2685.335" cy="1239.822" rx="64.984" ry="64.984"/>
				<g>
					
						<linearGradient id="SVGID_00000086669728894346984360000009293292200132846777_" gradientUnits="userSpaceOnUse" x1="2630.1221" y1="1342.454" x2="2342.324" y2="1877.4203">
						<stop  offset="0" style="stop-color:#4F52FF"/>
						<stop  offset="1" style="stop-color:#4042E2"/>
					</linearGradient>
					<path style="fill:url(#SVGID_00000086669728894346984360000009293292200132846777_);" d="M2685.335,1308.437
						c-37.834,0-68.614-30.78-68.614-68.614c0-37.834,30.78-68.615,68.614-68.615c37.834,0,68.615,30.78,68.615,68.615
						C2753.95,1277.656,2723.169,1308.437,2685.335,1308.437z M2685.335,1178.469c-33.83,0-61.354,27.523-61.354,61.354
						c0,33.83,27.523,61.354,61.354,61.354c33.831,0,61.354-27.523,61.354-61.354
						C2746.689,1205.992,2719.166,1178.469,2685.335,1178.469z"/>
				</g>
			</g>
			<g>
				<path style="fill:#FFFFFF;" d="M2623.691,1172.164c-0.306,0-0.611-0.129-0.827-0.38c-0.392-0.456-0.34-1.144,0.117-1.535
					c18.256-15.678,41.579-24.313,65.675-24.313c0.602,0,1.089,0.487,1.089,1.089c0,0.602-0.487,1.089-1.089,1.089
					c-23.576,0-46.395,8.448-64.256,23.787C2624.195,1172.077,2623.943,1172.164,2623.691,1172.164z"/>
			</g>
			<g>
				<path style="fill:#FFFFFF;" d="M2588.894,1247.877c-0.602,0-1.089-0.488-1.089-1.089c0-18.818,5.217-37.176,15.087-53.088
					c0.317-0.512,0.989-0.669,1.5-0.352c0.511,0.317,0.669,0.989,0.352,1.5c-9.656,15.567-14.76,33.528-14.76,51.94
					C2589.983,1247.39,2589.495,1247.877,2588.894,1247.877z"/>
			</g>
		</g>
		<g>
			
				<linearGradient id="SVGID_00000119076273356081963670000017072193990092697501_" gradientUnits="userSpaceOnUse" x1="1656.8894" y1="1205.4249" x2="448.1952" y2="1896.1078">
				<stop  offset="0" style="stop-color:#FF928E"/>
				<stop  offset="1" style="stop-color:#FE7062"/>
			</linearGradient>
			<path style="fill:url(#SVGID_00000119076273356081963670000017072193990092697501_);" d="M1618.198,1310.08l-1100.216-5.289
				c-13.26-0.121-24.029,14.546-23.928,32.59l2.437,435.297c0.102,18.147,11.152,32.629,24.482,32.083l1093.945-23.429
				c12.725-0.521,22.889-14.592,23.053-31.915l3.833-406.579C1641.975,1324.899,1631.382,1310.2,1618.198,1310.08z"/>
			<path style="opacity:0.52;fill:#FFFFFF;" d="M524.088,1776.843c-2.036,0-3.617-1.925-3.632-4.382l-2.436-435.292
				c-0.005-1.143,0.3-2.146,0.91-2.983c0.884-1.209,1.965-1.463,2.717-1.463l1100.224,5.291c0.749,0.005,1.818,0.27,2.694,1.482
				c0.606,0.843,0.909,1.843,0.899,2.978l-3.834,406.578c-0.022,2.407-1.523,4.28-3.491,4.36h-0.026L524.088,1776.843z
				 M521.641,1335.543c-0.069,0-0.208,0-0.431,0.306c-0.251,0.344-0.372,0.771-0.369,1.303l2.436,435.292
				c0.005,0.964,0.516,1.578,0.781,1.578l1093.995-23.432c0.289-0.022,0.749-0.65,0.757-1.567l3.834-406.575
				c0.004-0.529-0.116-0.953-0.366-1.303c-0.223-0.308-0.365-0.311-0.426-0.311L521.641,1335.543z"/>
			<g style="opacity:0.6;">
				<rect x="566.405" y="1535.014" style="fill:#FFFFFF;" width="53.542" height="204.606"/>
				<rect x="655.868" y="1605.334" style="fill:#FFFFFF;" width="53.542" height="134.286"/>
				<rect x="745.332" y="1431.543" style="fill:#FFFFFF;" width="53.542" height="308.077"/>
				<rect x="834.796" y="1665.609" style="fill:#FFFFFF;" width="53.542" height="74.012"/>
				<rect x="924.26" y="1472.731" style="fill:#FFFFFF;" width="53.542" height="266.889"/>
				<rect x="1013.724" y="1518.941" style="fill:#FFFFFF;" width="53.542" height="220.679"/>
				<rect x="1103.188" y="1569.17" style="fill:#FFFFFF;" width="53.542" height="170.451"/>
				<rect x="1192.652" y="1369.26" style="fill:#FFFFFF;" width="53.542" height="370.36"/>
				<rect x="1282.115" y="1408.438" style="fill:#FFFFFF;" width="53.542" height="331.182"/>
				<rect x="1371.579" y="1467.708" style="fill:#FFFFFF;" width="53.542" height="271.913"/>
				<rect x="1461.043" y="1672.478" style="fill:#FFFFFF;" width="53.542" height="67.143"/>
				<rect x="1550.507" y="1542.046" style="fill:#FFFFFF;" width="53.542" height="197.574"/>
			</g>
		</g>
		<g>
			
				<linearGradient id="SVGID_00000182526796212285187070000018263050296426882947_" gradientUnits="userSpaceOnUse" x1="1910.8027" y1="1831.2213" x2="686.8773" y2="2450.801">
				<stop  offset="0" style="stop-color:#FF928E"/>
				<stop  offset="1" style="stop-color:#FE7062"/>
			</linearGradient>
			<path style="fill:url(#SVGID_00000182526796212285187070000018263050296426882947_);" d="M1821.754,1921.16l-1060.5-5.099
				c-12.781-0.117-23.161,14.021-23.064,31.414l2.349,419.585c0.098,17.492,10.75,31.451,23.598,30.925l1054.456-22.583
				c12.266-0.502,22.063-14.066,22.221-30.763l3.695-391.903C1844.672,1935.445,1834.462,1921.276,1821.754,1921.16z"/>
			<path style="opacity:0.52;fill:#FFFFFF;" d="M763.465,2371.075c-1.962,0-3.486-1.856-3.501-4.224l-2.348-419.579
				c-0.005-1.099,0.289-2.065,0.876-2.875c0.856-1.166,1.897-1.41,2.62-1.41l1060.508,5.1c0.722,0.005,1.752,0.26,2.597,1.428
				c0.584,0.812,0.876,1.776,0.867,2.87l-3.696,391.901c-0.021,2.321-1.468,4.126-3.365,4.203h-0.025L763.465,2371.075z
				 M761.106,1945.705c-0.066,0-0.202,0-0.417,0.295c-0.24,0.329-0.357,0.743-0.354,1.256l2.348,419.579
				c0.005,0.929,0.498,1.521,0.753,1.521l1054.504-22.586c0.275-0.019,0.722-0.624,0.73-1.51l3.696-391.899
				c0.004-0.51-0.112-0.919-0.353-1.256c-0.215-0.297-0.352-0.3-0.41-0.3L761.106,1945.705z"/>
			<g>
				
					<ellipse transform="matrix(0.7071 -0.7071 0.7071 0.7071 -1208.4333 1286.9567)" style="opacity:0.78;fill:#FFFFFF;" cx="949.278" cy="2102.186" rx="109.796" ry="109.796"/>
				
					<ellipse transform="matrix(0.7071 -0.7071 0.7071 0.7071 -1128.7856 1479.243)" style="opacity:0.78;fill:#FFFFFF;" cx="1221.211" cy="2102.186" rx="109.796" ry="109.796"/>
				
					<ellipse transform="matrix(0.7071 -0.7071 0.7071 0.7071 -1051.4033 1673.2483)" style="opacity:0.78;fill:#FFFFFF;" cx="1494.088" cy="2105.78" rx="109.796" ry="109.796"/>
				<g>
					<path style="fill:#91B3FA;" d="M1014.518,2078.982c3.398,8.264,5.285,17.309,5.285,26.799c0,38.95-31.576,70.525-70.525,70.525
						c-38.95,0-70.525-31.575-70.525-70.525c0-38.95,31.575-70.525,70.525-70.525c1.193,0,2.379,0.031,3.557,0.09v-17.877
						c-1.18-0.047-2.365-0.077-3.557-0.077c-48.817,0-88.39,39.574-88.39,88.39s39.573,88.39,88.39,88.39
						c48.816,0,88.39-39.574,88.39-88.39c0-12.02-2.404-23.478-6.75-33.924L1014.518,2078.982z"/>
					<path style="fill:#91B3FA;" d="M1258.534,2165.449c-10.881,6.867-23.76,10.856-37.578,10.856
						c-38.95,0-70.525-31.575-70.525-70.525c0-38.95,31.575-70.525,70.525-70.525c1.193,0,2.379,0.031,3.557,0.09v-17.877
						c-1.181-0.047-2.365-0.077-3.557-0.077c-48.817,0-88.39,39.574-88.39,88.39s39.573,88.39,88.39,88.39
						c17.037,0,32.945-4.825,46.441-13.176L1258.534,2165.449z"/>
					<path style="fill:#91B3FA;" d="M1553.883,2145.432c-12.693,18.634-34.077,30.874-58.324,30.874
						c-38.95,0-70.526-31.575-70.526-70.525c0-38.95,31.575-70.525,70.526-70.525c1.193,0,2.379,0.031,3.557,0.09v-17.877
						c-1.181-0.047-2.365-0.077-3.557-0.077c-48.817,0-88.39,39.574-88.39,88.39s39.574,88.39,88.39,88.39
						c30.199,0,56.856-15.148,72.8-38.258L1553.883,2145.432z"/>
				</g>
				<g>
					<path style="opacity:0.5;fill:#FFFFFF;" d="M1039.523,2258.492H860.6c-11.231,0-20.335,9.104-20.335,20.335
						c0,11.23,9.104,20.334,20.335,20.334h178.923c11.23,0,20.335-9.104,20.335-20.334
						C1059.858,2267.596,1050.753,2258.492,1039.523,2258.492z"/>
					<path style="opacity:0.5;fill:#FFFFFF;" d="M1312.399,2258.492h-178.923c-11.23,0-20.335,9.104-20.335,20.335
						c0,11.23,9.104,20.334,20.335,20.334h178.923c11.231,0,20.335-9.104,20.335-20.334
						C1332.734,2267.596,1323.63,2258.492,1312.399,2258.492z"/>
					<path style="opacity:0.5;fill:#FFFFFF;" d="M1404.626,2299.162h178.923c11.23,0,20.334-9.104,20.334-20.334
						c0-11.231-9.104-20.335-20.334-20.335h-178.923c-11.23,0-20.335,9.104-20.335,20.335
						C1384.291,2290.057,1393.396,2299.162,1404.626,2299.162z"/>
				</g>
			</g>
		</g>
		<g>
			
				<linearGradient id="SVGID_00000024700962152197827190000004886209910711376297_" gradientUnits="userSpaceOnUse" x1="1741.2721" y1="831.6803" x2="2264.3616" y2="2141.9436">
				<stop  offset="0" style="stop-color:#FF928E"/>
				<stop  offset="1" style="stop-color:#FE7062"/>
			</linearGradient>
			<path style="fill:url(#SVGID_00000024700962152197827190000004886209910711376297_);" d="M1703.869,1815.022h523.072
				c16.68,0,30.201-13.521,30.201-30.201V1001.38c0-16.648-13.472-30.157-30.12-30.201l-527.255-1.415
				c-16.774-0.045-30.371,13.588-30.282,30.362l4.183,784.856C1673.756,1801.599,1687.252,1815.022,1703.869,1815.022z"/>
			<path style="opacity:0.6;fill:#FFFFFF;" d="M1729.501,1008.421l467.711,2.88c16.906,0.104,30.534,13.88,30.456,30.786
				l-3.264,703.166c-0.077,16.651-13.437,30.194-30.085,30.498l-454.439,8.291c-16.972,0.31-30.963-13.237-31.201-30.21
				l-10.008-714.336C1698.43,1022.33,1712.335,1008.315,1729.501,1008.421z"/>
			<path style="opacity:0.6;fill:#FFFFFF;" d="M1748.517,1047.816v3.225c0,5.063,4.104,9.168,9.168,9.168h360.369
				c5.063,0,9.167-4.105,9.167-9.168v-3.225c0-5.063-4.104-9.168-9.167-9.168h-360.369
				C1752.622,1038.648,1748.517,1042.752,1748.517,1047.816z"/>
			<path style="opacity:0.6;fill:#FFFFFF;" d="M1788.726,1088.374L1788.726,1088.374c0.26,4.799,4.182,8.583,8.988,8.67
				l315.16,5.743c5.128,0.094,9.335-4.037,9.335-9.166v-0.748c0-5.006-4.017-9.087-9.022-9.167l-315.161-4.995
				C1792.71,1078.627,1788.438,1083.066,1788.726,1088.374z"/>
			<path style="opacity:0.61;fill:#FFFFFF;" d="M1756.558,1760.458c-14.417,0-26.298-11.636-26.554-26.088l-10.226-575.104
				c-0.26-14.615,11.42-26.739,26.037-27.024l425.528-8.284c7.129-0.089,13.819,2.495,18.933,7.417
				c5.114,4.922,8.004,11.538,8.138,18.633l10.968,578.27c0.135,7.13-2.523,13.874-7.486,18.993
				c-4.962,5.118-11.62,7.983-18.749,8.069l-426.271,5.116C1756.772,1760.455,1756.663,1760.458,1756.558,1760.458z
				 M2171.869,1133.521c-0.113,0-0.226,0.002-0.339,0.005l-425.528,8.284c-9.352,0.18-16.824,7.936-16.658,17.287l0,0
				l10.226,575.104c0.165,9.242,7.765,16.687,16.988,16.687c0.068,0,0.135,0,0.203-0.002l426.271-5.116
				c4.56-0.054,8.819-1.888,11.994-5.161c3.175-3.275,4.876-7.59,4.789-12.15l-10.968-578.27c-0.086-4.539-1.936-8.772-5.206-11.919
				C2180.452,1135.201,2176.282,1133.521,2171.869,1133.521z"/>
			<path style="opacity:0.61;fill:#FFFFFF;" d="M2194.324,1191.385h-464.242c-2.642,0-4.784-2.142-4.784-4.784
				s2.142-4.784,4.784-4.784h464.242c2.642,0,4.784,2.142,4.784,4.784S2196.966,1191.385,2194.324,1191.385z"/>
			<g>
				<path style="opacity:0.73;fill:#FFFFFF;" d="M1975.251,1649.144c-100.59,0-182.426-81.836-182.426-182.427
					c0-100.59,81.836-182.426,182.426-182.426c100.591,0,182.427,81.836,182.427,182.426
					C2157.678,1567.308,2075.842,1649.144,1975.251,1649.144z M1975.251,1341.501c-69.044,0-125.216,56.171-125.216,125.216
					c0,69.045,56.172,125.217,125.216,125.217c69.045,0,125.217-56.172,125.217-125.217
					C2100.468,1397.672,2044.296,1341.501,1975.251,1341.501z"/>
				<path style="fill:#91B3FA;" d="M2157.168,1453.069l-57.05,4.28c0.23,3.093,0.35,6.216,0.35,9.367
					c0,14.92-2.628,29.236-7.437,42.517l53.813,19.425c7.006-19.348,10.834-40.206,10.834-61.942
					C2157.678,1462.126,2157.503,1457.576,2157.168,1453.069z"/>
				
					<linearGradient id="SVGID_00000096774528699076826850000000844071646957271701_" gradientUnits="userSpaceOnUse" x1="2098.7405" y1="1333.0188" x2="1730.0313" y2="1732.1991">
					<stop  offset="0" style="stop-color:#4F52FF"/>
					<stop  offset="1" style="stop-color:#4042E2"/>
				</linearGradient>
				<path style="fill:url(#SVGID_00000096774528699076826850000000844071646957271701_);" d="M1975.251,1591.934
					c-69.044,0-125.216-56.172-125.216-125.217c0-69.045,56.172-125.216,125.216-125.216c10.519,0,20.737,1.311,30.505,3.765
					l13.938-55.49c-14.232-3.576-29.118-5.485-44.443-5.485c-100.59,0-182.426,81.836-182.426,182.426
					c0,100.591,81.836,182.427,182.426,182.427c78.855,0,146.177-50.294,171.593-120.486l-53.813-19.425
					C2075.586,1557.412,2029.376,1591.934,1975.251,1591.934z"/>
				<path style="fill:#BDD0FB;" d="M2100.118,1457.349l57.05-4.28c-1.754-23.601-8.022-45.964-17.936-66.233l-51.426,25.052
					C2094.612,1425.8,2098.914,1441.149,2100.118,1457.349z"/>
			</g>
		</g>
		<g>
			
				<linearGradient id="SVGID_00000177447268713511355890000002456818111199123584_" gradientUnits="userSpaceOnUse" x1="2320.2202" y1="2236.9788" x2="2139.5479" y2="2236.9788">
				<stop  offset="0" style="stop-color:#FEBBBA"/>
				<stop  offset="1" style="stop-color:#FF928E"/>
			</linearGradient>
			<path style="fill:url(#SVGID_00000177447268713511355890000002456818111199123584_);" d="M2139.548,2199.967
				c0,0,67.107,154.862,108.404,134.214c41.296-20.649,72.269-190.997,72.269-190.997S2191.169,2112.212,2139.548,2199.967z"/>
			
				<linearGradient id="SVGID_00000176722573751295545350000008709981428103886512_" gradientUnits="userSpaceOnUse" x1="89.0052" y1="2884.7581" x2="92.8683" y2="3309.6616" gradientTransform="matrix(-1 0 0 1 2378.2981 0)">
				<stop  offset="0" style="stop-color:#4F52FF"/>
				<stop  offset="1" style="stop-color:#4042E2"/>
			</linearGradient>
			<path style="fill:url(#SVGID_00000176722573751295545350000008709981428103886512_);" d="M2373.198,3160.972
				c0,0,5.61,31.76,8.36,63.198c1.075,12.287-8.398,22.955-20.72,23.469c-41.866,1.743-131.421,5.134-163.557,3.7
				c-4.831-0.216-7.989-5.161-6.202-9.654l0,0c1.498-3.765,4.388-6.809,8.069-8.501l147.929-67.987L2373.198,3160.972z"/>
			
				<linearGradient id="SVGID_00000153673078049748863040000002864943026713580962_" gradientUnits="userSpaceOnUse" x1="0.505" y1="3160.8408" x2="48.622" y2="3160.8408" gradientTransform="matrix(-1 0 0 1 2378.2981 0)">
				<stop  offset="0" style="stop-color:#FEBBBA"/>
				<stop  offset="1" style="stop-color:#FF928E"/>
			</linearGradient>
			<path style="fill:url(#SVGID_00000153673078049748863040000002864943026713580962_);" d="M2377.793,3142.311l-4.507,37.989
				c0,0-25.913,12.063-43.61-1.521l10.731-42.335L2377.793,3142.311z"/>
			
				<linearGradient id="SVGID_00000005251781200628969320000007428786084570475953_" gradientUnits="userSpaceOnUse" x1="2484.0508" y1="2234.3313" x2="2341.8303" y2="3097.8103">
				<stop  offset="0" style="stop-color:#4F52FF"/>
				<stop  offset="1" style="stop-color:#4042E2"/>
			</linearGradient>
			<path style="fill:url(#SVGID_00000005251781200628969320000007428786084570475953_);" d="M2374.406,2428.117
				c1.947,9.92,10.45,495.054-41.407,712.459c-0.845,3.547,0.952,7.203,4.329,8.583c7.953,3.249,23.545,7.955,42.233,8.583
				c5.787,0.194,10.975-3.566,12.608-9.122c14.823-50.441,85.854-303.166,95.12-544.587c10.354-269.765,0-9.185,0-9.185
				l-6.072-166.752L2374.406,2428.117z"/>
			
				<linearGradient id="SVGID_00000017481982382290113810000011506764120315927472_" gradientUnits="userSpaceOnUse" x1="-147.5275" y1="2886.9094" x2="-143.6644" y2="3311.8123" gradientTransform="matrix(-1 0 0 1 2378.2981 0)">
				<stop  offset="0" style="stop-color:#4F52FF"/>
				<stop  offset="1" style="stop-color:#4042E2"/>
			</linearGradient>
			<path style="fill:url(#SVGID_00000017481982382290113810000011506764120315927472_);" d="M2543.363,3177.541
				c0,0,8.931,16.034,17.576,58.638c1.561,7.695-3.815,15.058-11.628,15.826c-13.824,1.359-35.106,3.108-52.155,2.99
				c-7.858-0.054-13.991-6.897-13.045-14.698c1.889-15.551,7.771-41.065,25.944-60.951L2543.363,3177.541z"/>
			
				<linearGradient id="SVGID_00000054252156366765708990000004146055629210565763_" gradientUnits="userSpaceOnUse" x1="-172.9085" y1="3158.3738" x2="-131.364" y2="3158.3738" gradientTransform="matrix(-1 0 0 1 2378.2981 0)">
				<stop  offset="0" style="stop-color:#FEBBBA"/>
				<stop  offset="1" style="stop-color:#FF928E"/>
			</linearGradient>
			<path style="fill:url(#SVGID_00000054252156366765708990000004146055629210565763_);" d="M2551.207,3128.679l-10.532,57.449
				c0,0-10.414,7.746-31.013,2.13l5.027-61.811L2551.207,3128.679z"/>
			
				<linearGradient id="SVGID_00000166642005762375323000000013484838876992981179_" gradientUnits="userSpaceOnUse" x1="2550.6699" y1="2245.3042" x2="2408.4487" y2="3108.7886">
				<stop  offset="0" style="stop-color:#4F52FF"/>
				<stop  offset="1" style="stop-color:#4042E2"/>
			</linearGradient>
			<path style="fill:url(#SVGID_00000166642005762375323000000013484838876992981179_);" d="M2579.658,2443.003
				c42.413,255.96-9.2,632.628-26.607,706.351c-1.065,4.513-4.708,7.972-9.283,8.73c-7.769,1.288-20.561,2.339-33.173-1.324
				c-4.345-1.261-7.398-5.181-7.575-9.703c-2.335-59.603,1.868-425.506-37.65-570.113c-2.003-7.328-6.479-13.719-12.67-18.121
				l-76.703-54.529l-5.88-88.141L2579.658,2443.003z"/>
			<g>
				
					<linearGradient id="SVGID_00000164488405430516388320000004454898156371941526_" gradientUnits="userSpaceOnUse" x1="2863.5603" y1="1515.1503" x2="2452.1982" y2="2190.5955">
					<stop  offset="0" style="stop-color:#FF928E"/>
					<stop  offset="1" style="stop-color:#FE7062"/>
				</linearGradient>
				<path style="fill:url(#SVGID_00000164488405430516388320000004454898156371941526_);" d="M2304.734,1967.674
					c154.862-15.486,272.015,23.706,272.015,23.706c37.887,221.065,6.625,476.049,6.625,476.049
					c-98.399,25.805-209.398-15.777-209.398-15.777c-16.354-92.4-92.66-352.444-92.66-352.444
					C2219.215,2091.5,2265.721,1971.575,2304.734,1967.674z"/>
			</g>
			
				<linearGradient id="SVGID_00000085950105882809255190000006763545878019281073_" gradientUnits="userSpaceOnUse" x1="2956.968" y1="1572.0363" x2="2545.6064" y2="2247.4807">
				<stop  offset="0" style="stop-color:#FF928E"/>
				<stop  offset="1" style="stop-color:#FE7062"/>
			</linearGradient>
			<path style="fill:url(#SVGID_00000085950105882809255190000006763545878019281073_);" d="M2527.998,2114.451l48.751-123.071
				c0,0,118.72,80.665,138.244,182.939c-22.432,1.652-63.251,7.487-103.206,27.661
				C2603.008,2153.688,2527.998,2114.451,2527.998,2114.451z"/>
			
				<linearGradient id="SVGID_00000000928267713484947430000000980760933881701308_" gradientUnits="userSpaceOnUse" x1="-329.0773" y1="2253.7268" x2="-17.9889" y2="2253.7268" gradientTransform="matrix(-1 0 0 1 2378.2981 0)">
				<stop  offset="0" style="stop-color:#FEBBBA"/>
				<stop  offset="1" style="stop-color:#FF928E"/>
			</linearGradient>
			<path style="fill:url(#SVGID_00000000928267713484947430000000980760933881701308_);" d="M2413.926,2230.258
				c0,0,133.293,75.33,178.268,11.007c9.338-13.356,11.57-26.63,9.27-39.285c39.955-20.174,80.773-26.008,103.206-27.661
				c5.887,30.833,2.774,63.625-15.343,96.767c-78.781,144.113-293.039-7.964-293.039-7.964L2413.926,2230.258z"/>
			<g>
				
					<linearGradient id="SVGID_00000164508458053527454720000003989497497249266308_" gradientUnits="userSpaceOnUse" x1="2368.8223" y1="1946.4084" x2="2232.6287" y2="2265.9402">
					<stop  offset="0" style="stop-color:#09005D"/>
					<stop  offset="1" style="stop-color:#1A0F91"/>
				</linearGradient>
				<path style="fill:url(#SVGID_00000164508458053527454720000003989497497249266308_);" d="M2429.942,2325.559l-72.747-254.046
					c-0.826-2.883-3.286-4.987-6.266-5.334c-13.18-1.537-51.371-5.855-95.467-9.584c-53.116-4.493-114.798-8.133-151.657-5.037
					c-5.24,0.44-8.406,5.982-6.076,10.697c20.96,42.406,107.179,214.902,150.354,271.409c1.431,1.872,3.643,2.966,5.998,2.945
					l168.783-1.571C2427.776,2334.992,2431.294,2330.28,2429.942,2325.559z"/>
				<path style="fill:#91B3FA;" d="M2247.917,2034.569l-52.742-8.787c-2.809-0.468-5.11,2.215-4.217,4.919l5.221,15.822
					c0.454,1.377,1.655,2.373,3.093,2.566l50.753,6.78c2.626,0.35,4.791-2.035,4.187-4.615l-3.232-13.813
					C2250.632,2035.952,2249.424,2034.82,2247.917,2034.569z"/>
				<path style="fill:#91B3FA;" d="M2287.409,2079.22l-4.345-22.633c-0.436-2.27-2.31-3.985-4.609-4.219l-106.527-10.81
					c-3.586-0.363-6.457,2.922-5.616,6.427l6.773,28.202c0.542,2.256,2.506,3.885,4.824,4.002l104.098,5.24
					C2285.396,2085.601,2288.048,2082.551,2287.409,2079.22z"/>
				
					<linearGradient id="SVGID_00000158727349490572841840000002801810741880836022_" gradientUnits="userSpaceOnUse" x1="-41.0856" y1="2221.1094" x2="55.8318" y2="2221.1094" gradientTransform="matrix(-1 0 0 1 2378.2981 0)">
					<stop  offset="0" style="stop-color:#FEBBBA"/>
					<stop  offset="1" style="stop-color:#FF928E"/>
				</linearGradient>
				<path style="fill:url(#SVGID_00000158727349490572841840000002801810741880836022_);" d="M2412.366,2264.181
					c0,0,10.133-41.669,6.046-56.452c-4.088-14.783-12.008-33.79-38.407-29.567c-26.398,4.224-57.539,15.344-57.539,15.344
					s1.573,19.256,21.637,13.043l-12.442,9.627c0,0,1.779,15.418,18.726,7.181l-11.572,12.767c0,0,7.278,12.664,19.746,4.541
					C2371.03,2232.543,2377.007,2269.199,2412.366,2264.181z"/>
				
					<linearGradient id="SVGID_00000031168770818950902590000014908239293333792667_" gradientUnits="userSpaceOnUse" x1="1648.9592" y1="2593.5349" x2="1745.8807" y2="2593.5349" gradientTransform="matrix(0.8472 -0.5312 0.5312 0.8472 -661.622 848.1048)">
					<stop  offset="0" style="stop-color:#FEBBBA"/>
					<stop  offset="1" style="stop-color:#FF928E"/>
				</linearGradient>
				<path style="fill:url(#SVGID_00000031168770818950902590000014908239293333792667_);" d="M2141.888,2202.184
					c0,0-30.72-29.92-35.111-44.616c-4.39-14.697-7.777-35.008,16.833-45.453c24.609-10.444,56.901-17.565,56.901-17.565
					s8.896,17.15-11.403,22.544l15.655,1.547c0,0,6.683,14.008-12.051,16.031l16.586,4.669c0,0,0.561,14.595-14.317,14.337
					C2160.104,2153.422,2174.511,2187.652,2141.888,2202.184z"/>
			</g>
			
				<linearGradient id="SVGID_00000021114921435777647730000006289351967063144074_" gradientUnits="userSpaceOnUse" x1="-85.0422" y1="1930.766" x2="37.9522" y2="1930.766" gradientTransform="matrix(-1 0 0 1 2378.2981 0)">
				<stop  offset="0" style="stop-color:#FEBBBA"/>
				<stop  offset="1" style="stop-color:#FF928E"/>
			</linearGradient>
			<path style="fill:url(#SVGID_00000021114921435777647730000006289351967063144074_);" d="M2422.663,1864.432l40.442,116.955
				c0.67,1.937-0.127,4.082-1.921,5.075c-11.024,6.095-50.741,23.713-98.604-6.633c-4.987-3.161-8.38-8.317-9.138-14.172
				l-13.096-101.224H2422.663z"/>
			<g>
				
					<linearGradient id="SVGID_00000083053103332430487400000001767049662300181889_" gradientUnits="userSpaceOnUse" x1="-5542.8755" y1="-1387.814" x2="-5588.8369" y2="-1539.406" gradientTransform="matrix(-0.746 -0.6659 -0.6659 0.746 -2748.0371 -803.1727)">
					<stop  offset="0" style="stop-color:#FEBBBA"/>
					<stop  offset="1" style="stop-color:#FF928E"/>
				</linearGradient>
				<path style="fill:url(#SVGID_00000083053103332430487400000001767049662300181889_);" d="M2334.667,1756.129
					c0,0-44.408,83.596-38.716,117.364c5.692,33.769,60.731,31.344,108.792,3.918l33.584-90.264L2334.667,1756.129z"/>
				
					<linearGradient id="SVGID_00000087391453155048759370000002969026318001373615_" gradientUnits="userSpaceOnUse" x1="-5584.3423" y1="-1651.9409" x2="-5545.8955" y2="-1432.6528" gradientTransform="matrix(-0.746 -0.6659 -0.6659 0.746 -2748.0371 -803.1727)">
					<stop  offset="0" style="stop-color:#09005D"/>
					<stop  offset="1" style="stop-color:#1A0F91"/>
				</linearGradient>
				<path style="fill:url(#SVGID_00000087391453155048759370000002969026318001373615_);" d="M2402.618,1833.083
					c-1.953-0.865-2.673-3.256-1.504-5.043c3.558-5.435,10.228-16.524,12.355-26.233c0,0,7.984-5.113-20.319-11.887
					c-28.303-6.775-70.51-17.29-79.381-41.38c-8.65-23.488,14.076-82.557,50.334-35.492c1.379,1.791,4.082,1.831,5.459,0.038
					c5.944-7.736,21.571-23.793,43.266-14.058c20.303,9.11,22.589,23.987,22.31,31.485c-0.082,2.206,1.89,3.92,4.059,3.507
					c10.265-1.957,34.897-3.639,46.395,21.63c9.47,20.813,3.315,32.597-2.29,38.358c-1.816,1.867-1.021,4.941,1.47,5.704
					c6.746,2.065,15.458,7.785,14.586,23.59c-1.206,21.851-25.636,19.926-32.591,18.929c-1.14-0.163-2.288,0.228-3.06,1.082
					c-5.964,6.6-32.834,34.623-61.917,38.001c-2.518,0.292-4.469-2.195-3.645-4.591l12.587-36.585
					c0.584-1.699-0.229-3.563-1.872-4.291L2402.618,1833.083z"/>
				
					<linearGradient id="SVGID_00000025424443438980210340000002548460602642380421_" gradientUnits="userSpaceOnUse" x1="-5589.8599" y1="-1388.52" x2="-5631.2119" y2="-1524.9088" gradientTransform="matrix(-0.746 -0.6659 -0.6659 0.746 -2748.0371 -803.1727)">
					<stop  offset="0" style="stop-color:#FEBBBA"/>
					<stop  offset="1" style="stop-color:#FF928E"/>
				</linearGradient>
				<path style="fill:url(#SVGID_00000025424443438980210340000002548460602642380421_);" d="M2397.56,1838.276
					c0,0,31.619-21.694,33.929-3.425c2.311,18.269-28.473,26.462-43.72,19.652L2397.56,1838.276z"/>
			</g>
		</g>
		<g>
			
				<linearGradient id="SVGID_00000072263855929304912470000008667669841038116526_" gradientUnits="userSpaceOnUse" x1="5558.084" y1="1786.3207" x2="5256.291" y2="2157.333" gradientTransform="matrix(-0.9922 -0.1247 -0.1247 0.9922 8264.5254 715.4178)">
				<stop  offset="0" style="stop-color:#FEBBBA"/>
				<stop  offset="1" style="stop-color:#FF928E"/>
			</linearGradient>
			<path style="fill:url(#SVGID_00000072263855929304912470000008667669841038116526_);" d="M2555.796,1899.766
				c1.965-3.756,7.523-3.164,8.658,0.92c4.2,15.119,14.366,41.5,35.698,50.868c1.075,0.472,2.092,0.949,3.076,1.429
				c0.968-2.901,0.981-6.269-1.336-9.811c-6.632-10.135,5.34-23.977,5.34-23.977s0.792,12.191,10.06,19.867
				c7.982,6.613,11.814,21.326,6.359,33.397c-11.545,44.844-28.833,104.154,38.51,147.484
				c67.341,43.33,162.178-81.774,162.178-81.774l-47.07,149.218c0,0-72.652,53.613-157.159-21.776
				c-84.507-75.389-28.494-185.09-28.494-185.09S2527.159,1954.52,2555.796,1899.766z"/>
			
				<linearGradient id="SVGID_00000098196148646599724960000007713278009120542632_" gradientUnits="userSpaceOnUse" x1="-5178.896" y1="2506.4321" x2="-5376.7959" y2="2741.5845" gradientTransform="matrix(0.9602 0.2794 -0.2794 0.9602 8902.9297 797.6744)">
				<stop  offset="0" style="stop-color:#09005D"/>
				<stop  offset="1" style="stop-color:#1A0F91"/>
			</linearGradient>
			<path style="fill:url(#SVGID_00000098196148646599724960000007713278009120542632_);" d="M2836.132,1818.924
				c0,0-19.51-87.515,80.736-64.349c0,0,48.661-7.951,51.135,37.977c0,0,31.367,20.669,8.4,60.417c0,0,93.219-36.006,133.835,45.701
				c40.616,81.707,3.281,126.666-35.856,138.376c0,0,31.709,15.921,16.7,51.871c-15.01,35.949-91.02,61.29-135.92,17.573
				c0,0-127.763,16.884-125.206-73.361c0,0-59.424-38.374,2.99-112.955C2895.361,1845.593,2836.132,1818.924,2836.132,1818.924z"/>
			
				<linearGradient id="SVGID_00000056391829993164931940000012130306227397923767_" gradientUnits="userSpaceOnUse" x1="3276.3201" y1="1748.8678" x2="2881.303" y2="2211.6023">
				<stop  offset="0" style="stop-color:#DAE3FE"/>
				<stop  offset="1" style="stop-color:#E9EFFD"/>
			</linearGradient>
			<path style="fill:url(#SVGID_00000056391829993164931940000012130306227397923767_);" d="M2830.626,2021.777
				c20.145-6.039,78.797-17.189,134.587,34.296c9.462,8.732,13.328,22,9.954,34.425c-14.984,55.167-54.52,218.154-19.854,288.676
				c0,0-61.09,67.343-127.737,13.066c0,0-29.902-130.326-69.068-187.539c-27.041-39.499,43.117-148.326,60.867-174.618
				C2822.065,2026.102,2826.026,2023.156,2830.626,2021.777z"/>
			
				<linearGradient id="SVGID_00000147923273164259970120000014604338880991630270_" gradientUnits="userSpaceOnUse" x1="-5465.4673" y1="2921.0232" x2="-5449.3438" y2="2806.5474" gradientTransform="matrix(0.9602 0.2794 -0.2794 0.9602 8902.9297 797.6744)">
				<stop  offset="0" style="stop-color:#FEBBBA"/>
				<stop  offset="1" style="stop-color:#FF928E"/>
			</linearGradient>
			<path style="fill:url(#SVGID_00000147923273164259970120000014604338880991630270_);" d="M2886.246,1912.175
				c0,0,29.792,84.268,32.033,121.445c0,0-32.926,14.972-63.952-10.299c0,0-3.255-84.17-7.959-99.242L2886.246,1912.175z"/>
			
				<linearGradient id="SVGID_00000047057970243768365490000003986772302421157251_" gradientUnits="userSpaceOnUse" x1="-5539.3862" y1="2675.7341" x2="-5388.6289" y2="2849.0642" gradientTransform="matrix(0.9602 0.2794 -0.2794 0.9602 8902.9297 797.6744)">
				<stop  offset="0" style="stop-color:#FEBBBA"/>
				<stop  offset="1" style="stop-color:#FF928E"/>
			</linearGradient>
			<path style="fill:url(#SVGID_00000047057970243768365490000003986772302421157251_);" d="M2844.865,1797.277
				c0,0-77.922,109.048-31.343,140.723c46.58,31.674,102.051-45.821,102.051-45.821s18.08-59.686-0.826-79.933
				C2895.841,1791.997,2844.865,1797.277,2844.865,1797.277z"/>
			
				<linearGradient id="SVGID_00000026843884279363499000000010035084844124748447_" gradientUnits="userSpaceOnUse" x1="-5273.6807" y1="2426.6665" x2="-5471.5845" y2="2661.8232" gradientTransform="matrix(0.9602 0.2794 -0.2794 0.9602 8902.9297 797.6744)">
				<stop  offset="0" style="stop-color:#09005D"/>
				<stop  offset="1" style="stop-color:#1A0F91"/>
			</linearGradient>
			<path style="fill:url(#SVGID_00000026843884279363499000000010035084844124748447_);" d="M2880.932,1771.218
				c0,0-35.797,8.482-40.814,24.678c-5.017,16.197,50.764,31.217,66.393,31.951l12.594,65.359c0,0,37.229-61.484,22.481-96.994
				C2926.84,1760.703,2880.932,1771.218,2880.932,1771.218z"/>
			
				<linearGradient id="SVGID_00000173163157101534459020000013131238917517796495_" gradientUnits="userSpaceOnUse" x1="-5501.7207" y1="2642.9707" x2="-5350.9648" y2="2816.2993" gradientTransform="matrix(0.9602 0.2794 -0.2794 0.9602 8902.9297 797.6744)">
				<stop  offset="0" style="stop-color:#FEBBBA"/>
				<stop  offset="1" style="stop-color:#FF928E"/>
			</linearGradient>
			<path style="fill:url(#SVGID_00000173163157101534459020000013131238917517796495_);" d="M2900.467,1884.154
				c0,0,30.33-35.125,42.393-12.226c12.064,22.899-27.3,40.092-40.927,28.848L2900.467,1884.154z"/>
			
				<linearGradient id="SVGID_00000121984424502059879150000010853496748821447074_" gradientUnits="userSpaceOnUse" x1="4871.125" y1="3377.4719" x2="5230.7974" y2="2742.573" gradientTransform="matrix(-1 -0.0095 -0.0095 1 8008.4194 56.9446)">
				<stop  offset="0" style="stop-color:#FEBBBA"/>
				<stop  offset="1" style="stop-color:#FF928E"/>
			</linearGradient>
			<path style="fill:url(#SVGID_00000121984424502059879150000010853496748821447074_);" d="M2749.776,2665.87
				c0.229,5.916-10.159,52.845-15.813,77.877c-2.275,10.072-0.691,20.612,4.437,29.575l195.786,329.518
				c2.369,3.986,4.093,8.303,5.141,12.82c3.588,15.464,11.03,53.361,7.144,87.838l-10.128,21.036l43.804-9.946l9.531-117.634
				l-12.401-7.562c-10.713-6.531-19.055-16.297-23.831-27.899c-17.704-43.003-61.667-152.469-73-205.816
				c-12.878-60.629-80.206-109.874-80.206-109.874l11.828-27.964L2749.776,2665.87z"/>
			
				<linearGradient id="SVGID_00000034065901328870618730000010443044275008524221_" gradientUnits="userSpaceOnUse" x1="4949.5308" y1="3152.9988" x2="5054.6641" y2="3152.9988" gradientTransform="matrix(-1 -0.0095 -0.0095 1 8008.4194 56.9446)">
				<stop  offset="0" style="stop-color:#09005D"/>
				<stop  offset="1" style="stop-color:#1A0F91"/>
			</linearGradient>
			<path style="fill:url(#SVGID_00000034065901328870618730000010443044275008524221_);" d="M3028.829,3174.109
				c0,0-23.655-37.502-26.438-52.101c-2.782-14.598-10.53-40.377-25.114-32.617c0,0-6.872,70.914-4.503,98.624
				c2.368,27.708-31.324,26.817-31.324,26.817s-9.286,1.305-16.086,8.104c-4.696,4.695-1.337,12.84,5.288,13.267
				c11.026,0.71,28.539,0.896,46.928-2.657c6.427-1.242,11.191-6.71,11.58-13.244l4.855-81.616l29.838,37.677L3028.829,3174.109z"/>
			
				<linearGradient id="SVGID_00000051360235796183721310000001077700068753916321_" gradientUnits="userSpaceOnUse" x1="2968.885" y1="2895.1826" x2="2456.4905" y2="3254.0852">
				<stop  offset="0" style="stop-color:#FEBBBA"/>
				<stop  offset="1" style="stop-color:#FF928E"/>
			</linearGradient>
			<path style="fill:url(#SVGID_00000051360235796183721310000001077700068753916321_);" d="M2866.735,2718.359
				c0,0,6.905,294.751,7.84,336.613c0.935,41.863-6.61,134.633-48.576,162.363l18.261,13.519c0,0,22.821-19.396,45.117-56.725
				c25.045-41.936,32.619-49.597,32.619-49.597l-8.311-17.02c-3.639-7.451-4.708-15.881-3.032-24.002
				c9.056-43.892,39.31-189.883,47.562-221.323c9.742-37.112,10.435-86.673-23.456-128.159
				C2900.867,2692.544,2866.735,2718.359,2866.735,2718.359z"/>
			
				<linearGradient id="SVGID_00000093862536139579555760000005407736126641973901_" gradientUnits="userSpaceOnUse" x1="5047.0034" y1="3171.9871" x2="5172.332" y2="3171.9871" gradientTransform="matrix(-1 -0.0095 -0.0095 1 8008.4194 56.9446)">
				<stop  offset="0" style="stop-color:#09005D"/>
				<stop  offset="1" style="stop-color:#1A0F91"/>
			</linearGradient>
			<path style="fill:url(#SVGID_00000093862536139579555760000005407736126641973901_);" d="M2905.488,3244.14
				c1.302,0.012,2.408-0.92,2.592-2.209c1.398-9.827,7.21-49.222,11.968-59.424c5.45-11.682,23.25-60.853-0.01-65.028
				c0,0-57.827,84.487-68.928,95.877c-11.101,11.392-25.111,3.98-25.111,3.98s-10.816,3.195-18.972,13.619
				c-3.882,4.961-0.266,12.243,6.033,12.303l38.951,0.372c11.312,0.108,21.487-6.764,25.691-17.266
				c6.857-17.125,18.634-42.243,32.361-53.387l-7.132,68.297C2902.771,3242.796,2903.957,3244.125,2905.488,3244.14
				L2905.488,3244.14z"/>
			
				<linearGradient id="SVGID_00000055670651940536313650000001571886427976544685_" gradientUnits="userSpaceOnUse" x1="3092.0564" y1="2351.9209" x2="2030.1665" y2="3452.9314">
				<stop  offset="0" style="stop-color:#4F52FF"/>
				<stop  offset="1" style="stop-color:#4042E2"/>
			</linearGradient>
			<path style="fill:url(#SVGID_00000055670651940536313650000001571886427976544685_);" d="M2818.358,2360.458
				c0,0,8.777,27.977-4.707,74.056l-83.649,292.107c-1.315,4.59,1.162,9.394,5.656,11.006
				c25.021,8.98,107.273,34.362,219.554,26.622c5.653-0.39,10.394-4.392,11.623-9.924c7.398-33.301,32.641-146.921,37.838-170.267
				c19.804-88.956,41.917-184.887-55.361-242.895C2904.481,2360.365,2862.667,2371.684,2818.358,2360.458z"/>
			
				<linearGradient id="SVGID_00000091701111357791497320000000387315233732432295_" gradientUnits="userSpaceOnUse" x1="3082.1707" y1="2013.2515" x2="2780.3701" y2="2756.5742">
				<stop  offset="0" style="stop-color:#FEBBBA"/>
				<stop  offset="1" style="stop-color:#FF928E"/>
			</linearGradient>
			<path style="fill:url(#SVGID_00000091701111357791497320000000387315233732432295_);" d="M2973.196,2067.081
				c0,0,95.174,79.093,118.793,187.174c23.62,108.079-139.073,119.566-139.073,119.566s-22.086-24.663-48.307-15.867
				c-26.221,8.796-2.031-43.043,28.649-42.907c30.678,0.136,16.467,24.394,59.866,4.735c42.277-19.15,68.408-78.375-39.458-168.154
				c-6.252-5.204-11.242-11.838-14.246-19.399C2918.464,2079.48,2935.084,2044.902,2973.196,2067.081z"/>
		</g>
	</g>
</g>
</svg>
